<?xml version="1.0" encoding="UTF-8"?>
<svg id="_圖層_1" data-name="圖層_1" xmlns="http://www.w3.org/2000/svg" version="1.1" xmlns:xlink="http://www.w3.org/1999/xlink" viewBox="0 0 200 200">
  <!-- Generator: Adobe Illustrator 29.5.0, SVG Export Plug-In . SVG Version: 2.1.0 Build 137)  -->
  <defs>
    <style>
      .st0 {
        fill: url(#_未命名漸層_20);
      }

      .st1 {
        fill: url(#_未命名漸層_201);
      }
    </style>
    <linearGradient id="_未命名漸層_20" data-name="未命名漸層 20" x1="32.46" y1="53.5" x2="166.54" y2="187.58" gradientUnits="userSpaceOnUse">
      <stop offset="0" stop-color="#00a4dd"/>
      <stop offset="1" stop-color="#008cd2"/>
    </linearGradient>
    <linearGradient id="_未命名漸層_201" data-name="未命名漸層 20" x1="32.83" y1="53.87" x2="166.91" y2="187.95" xlink:href="#_未命名漸層_20"/>
  </defs>
  <path class="st0" d="M99.5,26.23C46.47,26.23,3.48,69.23,3.48,122.26c0,18.76,5.4,36.24,14.7,51.03,1.64-11.8,11.75-20.9,24-20.9,3.28,0,6.41.66,9.26,1.84,1.46-6.95,7.61-12.17,15-12.17,3.92,0,7.49,1.49,10.2,3.91,4.28-16.44,19.22-28.58,37-28.58,20.21,0,36.74,15.68,38.12,35.53,1.64-.35,3.34-.54,5.08-.54,12.26,0,22.36,9.1,24,20.9,9.3-14.79,14.7-32.27,14.7-51.03,0-53.03-42.99-96.03-96.03-96.03ZM157.16,60.17l-52.33,31.99-14.82,20.98c-2.1,2.97-5.12,5.17-8.6,6.24l-8.61,2.66,5.88-14.24-33.85,15.72c-4.86,2.68-10.01,4.8-15.34,6.32-2.2.63-3.95-1.87-2.61-3.72l6.54-9.06-10.5-4.26,10.73-6.81,12.33.71,23.52-13.7-48.15-5.88,14.19-7.39c2.04-1.06,4.27-1.68,6.56-1.83l60.85-3.89,27.62-15.64c6.61-3.74,14.33-5.05,21.8-3.67l3.88.71c2.34.43,2.92,3.51.91,4.76Z"/>
  <path class="st1" d="M99.87,26.6C46.84,26.6,3.84,69.59,3.84,122.63c0,18.76,5.4,36.24,14.7,51.03,1.64-11.8,11.75-20.9,24-20.9,3.28,0,6.41.66,9.26,1.84,1.46-6.95,7.61-12.17,15-12.17,3.92,0,7.49,1.49,10.2,3.91,4.28-16.44,19.22-28.58,37-28.58,20.21,0,36.74,15.68,38.12,35.53,1.64-.35,3.34-.54,5.08-.54,12.26,0,22.36,9.1,24,20.9,9.3-14.79,14.7-32.27,14.7-51.03,0-53.03-42.99-96.03-96.03-96.03ZM157.53,60.54l-52.33,31.99-14.82,20.98c-2.1,2.97-5.12,5.17-8.6,6.24l-8.61,2.66,5.88-14.24-33.85,15.72c-4.86,2.68-10.01,4.8-15.34,6.32-2.2.63-3.95-1.87-2.61-3.72l6.54-9.06-10.5-4.26,10.73-6.81,12.33.71,23.52-13.7-48.15-5.88,14.19-7.39c2.04-1.06,4.27-1.68,6.56-1.83l60.85-3.89,27.62-15.64c6.61-3.74,14.33-5.05,21.8-3.67l3.88.71c2.34.43,2.92,3.51.91,4.76Z"/>
</svg>